<svg xmlns="http://www.w3.org/2000/svg" viewBox="0 0 320 250">
  <rect x="18" y="28" width="284" height="188" rx="24" fill="#e8f8fb"/>
  <rect x="30" y="40" width="78" height="66" rx="14" fill="#ffffff" stroke="#b6dfea" stroke-width="6"/>
  <rect x="118" y="40" width="72" height="48" rx="12" fill="#233d64"/>
  <rect x="198" y="40" width="54" height="62" rx="14" fill="#ffffff" stroke="#b6dfea" stroke-width="6"/>
  <rect x="260" y="48" width="30" height="94" rx="10" fill="#f9ffff" stroke="#b6dfea" stroke-width="5"/>
  <path d="M144 48 h18 v12 h12 v18 h-12 v12 h-18 v-12 h-12 v-18 h12z" fill="#9adce6"/>
  <rect x="72" y="144" width="162" height="60" rx="20" fill="#cfeefa" stroke="#8ec5d6" stroke-width="8"/>
  <rect x="92" y="130" width="62" height="24" rx="12" fill="#ffffff"/>
  <rect x="160" y="154" width="44" height="34" rx="10" fill="#76b8e0"/>
  <rect x="232" y="132" width="48" height="76" rx="10" fill="#ffffff" stroke="#8ec5d6" stroke-width="5"/>
  <rect x="246" y="118" width="20" height="16" rx="8" fill="#7edbe8"/>
  <rect x="40" y="126" width="18" height="84" rx="9" fill="#ffffff" stroke="#b6dfea" stroke-width="4"/>
  <path d="M50 130 v76" stroke="#b6dfea" stroke-width="4" stroke-linecap="round"/>
  <rect x="280" y="136" width="18" height="70" rx="9" fill="#dff7fb"/>
  <path d="M288 142 v18 h10" stroke="#90c4d0" stroke-width="4" fill="none" stroke-linecap="round"/>
  <rect x="92" y="214" width="144" height="14" rx="7" fill="#ffffff" opacity="0.95"/>
  <circle cx="52" cy="70" r="12" fill="#ff9dbb" opacity="0.8"/>
  <circle cx="72" cy="70" r="12" fill="#ffd47a" opacity="0.8"/>
  <rect x="206" y="116" width="18" height="12" rx="6" fill="#ffcf9b"/>
</svg>
