<svg xmlns="http://www.w3.org/2000/svg" viewBox="0 0 320 250">
  <rect x="26" y="24" width="268" height="184" rx="26" fill="#f5d9be"/>
  <rect x="38" y="36" width="112" height="66" rx="16" fill="#bde7ff" stroke="#8f674a" stroke-width="6"/>
  <rect x="170" y="36" width="112" height="66" rx="16" fill="#bde7ff" stroke="#8f674a" stroke-width="6"/>
  <line x1="94" y1="40" x2="94" y2="98" stroke="#8f674a" stroke-width="4"/>
  <line x1="226" y1="40" x2="226" y2="98" stroke="#8f674a" stroke-width="4"/>
  <rect x="56" y="120" width="208" height="58" rx="14" fill="#254e47" stroke="#8f674a" stroke-width="8"/>
  <rect x="68" y="132" width="76" height="8" rx="4" fill="#fdf5e6"/>
  <rect x="156" y="132" width="40" height="8" rx="4" fill="#f5d07b"/>
  <rect x="204" y="132" width="36" height="8" rx="4" fill="#a1e39a"/>
  <rect x="24" y="112" width="22" height="92" rx="10" fill="#c99672"/>
  <rect x="274" y="112" width="22" height="92" rx="10" fill="#c99672"/>
  <circle cx="86" cy="22" r="16" fill="#ffe8a3" opacity="0.95"/>
  <circle cx="234" cy="22" r="16" fill="#ffe8a3" opacity="0.95"/>
  <path d="M86 38 v18" stroke="#8f674a" stroke-width="4" stroke-linecap="round"/>
  <path d="M234 38 v18" stroke="#8f674a" stroke-width="4" stroke-linecap="round"/>
  <rect x="40" y="186" width="110" height="38" rx="14" fill="#8c5f41"/>
  <rect x="170" y="186" width="110" height="38" rx="14" fill="#8c5f41"/>
  <rect x="56" y="198" width="78" height="10" rx="5" fill="#f8efdf"/>
  <rect x="186" y="198" width="78" height="10" rx="5" fill="#f8efdf"/>
  <rect x="236" y="100" width="42" height="66" rx="10" fill="#f7f0df" stroke="#8f674a" stroke-width="5"/>
  <rect x="244" y="112" width="10" height="44" rx="5" fill="#8fd3ff"/>
  <rect x="258" y="112" width="10" height="44" rx="5" fill="#ffb6d0"/>
  <rect x="78" y="212" width="164" height="18" rx="9" fill="#f1d3b4"/>
  <circle cx="96" cy="146" r="6" fill="#ffefcc"/>
  <circle cx="114" cy="152" r="6" fill="#ffefcc"/>
  <circle cx="132" cy="158" r="6" fill="#ffefcc"/>
  <circle cx="150" cy="152" r="6" fill="#ffefcc"/>
  <circle cx="168" cy="146" r="6" fill="#ffefcc"/>
</svg>
